<?xml version="1.0" standalone="no"?>
<!DOCTYPE svg PUBLIC "-//W3C//DTD SVG 20010904//EN"
 "http://www.w3.org/TR/2001/REC-SVG-20010904/DTD/svg10.dtd">
<svg version="1.0" xmlns="http://www.w3.org/2000/svg"
 width="192.000000pt" height="145.000000pt" viewBox="0 0 192.000000 145.000000"
 preserveAspectRatio="xMidYMid meet">
<metadata>
Created by potrace 1.10, written by Peter Selinger 2001-2011
</metadata>
<g transform="translate(0.000000,145.000000) scale(0.100000,-0.100000)"
fill="#000000" stroke="none">
<path d="M294 1183 c-12 -2 -34 -18 -50 -34 l-29 -30 -3 -377 c-3 -416 -1
-441 50 -472 29 -18 55 -19 376 -19 l345 0 102 99 c57 55 107 100 111 100 4 0
54 -45 109 -100 l102 -100 175 0 c162 0 177 2 202 21 19 15 26 29 26 56 0 33
-12 49 -142 180 -170 172 -212 197 -323 197 -95 0 -139 -25 -299 -177 -103
-97 -130 -117 -155 -117 -17 0 -31 3 -31 7 0 3 56 63 124 133 69 70 128 139
131 153 10 38 -16 75 -144 202 -61 60 -111 113 -111 117 0 5 15 8 33 8 28 0
48 -16 152 -118 66 -65 143 -132 170 -148 44 -25 60 -29 130 -29 112 0 149 23
324 199 118 120 141 147 141 173 0 18 -9 38 -23 51 -22 21 -32 22 -196 22
-106 0 -181 -4 -194 -11 -12 -6 -61 -50 -108 -96 -48 -47 -91 -84 -97 -82 -5
2 -53 45 -105 96 l-96 91 -66 7 c-36 4 -121 5 -188 1 -67 -3 -126 -5 -132 -5
-58 4 -295 6 -311 2z m298 -68 c-3 -21 0 -35 7 -35 6 0 11 -4 11 -10 0 -6 -49
-10 -128 -10 -86 0 -132 -4 -140 -12 -15 -15 -17 -241 -2 -269 10 -17 22 -19
130 -19 66 0 120 3 120 8 0 4 -7 18 -16 31 -32 46 -1 43 122 -10 65 -28 123
-55 128 -60 5 -4 -1 -12 -15 -17 -13 -6 -73 -30 -134 -56 -117 -48 -135 -46
-99 10 l18 26 -120 -3 c-65 -3 -125 -8 -131 -12 -9 -6 -13 -46 -13 -142 0 -73
3 -140 6 -149 5 -14 27 -16 141 -16 l134 0 -15 -22 c-10 -13 -13 -31 -9 -46 5
-21 3 -24 -11 -19 -10 4 -80 7 -156 7 -113 0 -142 3 -154 16 -14 13 -16 65
-16 414 l0 399 22 15 c18 13 53 16 173 16 l151 0 -4 -35z m513 -96 c127 -128
183 -168 234 -169 63 0 106 25 205 120 l98 95 -88 7 -89 6 -97 -95 -96 -96
-31 22 c-17 12 -31 26 -31 29 0 4 46 53 103 110 l102 102 167 0 c91 0 173 -3
182 -6 39 -15 15 -51 -126 -191 -160 -158 -204 -186 -288 -186 -93 0 -139 28
-282 173 l-126 130 -91 0 c-50 0 -91 -1 -91 -3 0 -1 74 -77 165 -168 91 -90
165 -171 165 -179 0 -8 -74 -89 -165 -179 -91 -91 -165 -167 -165 -168 0 -2
39 -3 86 -3 l86 0 137 129 c167 158 197 175 291 169 95 -7 129 -30 293 -196
125 -127 138 -142 127 -161 -10 -20 -18 -21 -188 -21 l-177 0 -102 102 c-57
57 -103 107 -103 113 0 5 12 18 26 28 24 18 25 18 72 -22 26 -21 72 -65 102
-95 l54 -56 88 0 c48 0 88 1 88 3 0 1 -30 35 -67 74 -127 134 -176 161 -267
141 -47 -10 -62 -21 -192 -150 l-141 -138 -179 2 -179 3 -3 24 c-3 19 32 59
184 212 l189 189 -188 188 c-103 103 -187 195 -187 204 0 31 33 37 200 38
l165 0 130 -131z m-330 -139 l160 -160 -158 -158 -158 -158 -97 3 c-53 2 -110
3 -125 3 l-28 0 3 118 3 117 66 3 c61 3 69 1 87 -23 11 -14 25 -25 31 -25 6 0
11 -5 11 -11 0 -13 21 -7 149 47 98 42 130 64 131 90 0 25 -53 61 -148 101
-111 47 -133 47 -168 -1 -16 -22 -28 -26 -79 -28 -33 -1 -66 1 -72 5 -9 6 -13
40 -13 112 0 73 4 104 13 107 6 3 46 3 88 1 42 -2 87 1 100 6 13 5 29 10 34
10 6 1 82 -71 170 -159z m755 135 c0 -16 -79 -89 -118 -109 -33 -17 -72 -21
-72 -8 0 11 123 129 140 134 22 7 50 -3 50 -17z m-127 -479 c37 -16 139 -114
131 -127 -3 -5 -17 -9 -32 -9 -21 0 -45 17 -95 68 -78 78 -79 100 -4 68z"/>
</g>
</svg>
